<svg width="1890" viewBox="0 0 2290 990" xmlns="http://www.w3.org/2000/svg" xmlns:xlink="http://www.w3.org/1999/xlink">
	<defs>
		<g id="half-tone" fill="#aaa">
			<text x="-11" y="0">𝅘</text>
			<text x="11" y="-10">𝅘</text>
			<text x="-30" y="-1" font-size="21">♯</text>
			<text x="28" y="-10" font-size="21">♭</text>
		</g>
	</defs>

	<!-- <rect x="0" y="0" width="100%" height="100%" stroke="#aaa" stroke-width="1" fill="transparent"></rect> -->

	<g font-family="Segoe UI Symbol" text-anchor="middle" dominant-baseline="middle">
		<!-- Title -->
		<g transform="translate(0, 50)">
			<text x="50%" y="0" font-size="50">Note to Fret Mapping for Ukulele</text>
			
			<text x="50%" y="70" font-size="30">- G C E A (Low G) -</text>
		</g>

		<!-- Vertical separators -->
		<g transform="translate(100, 210)" stroke="#aaa" stroke-width="0.5" fill="transparent">
			<rect x="0" y="0" width="80" height="660" rx="15"></rect>
			<rect x="80" y="0" width="80" height="660" rx="15"></rect>
			<rect x="160" y="0" width="80" height="660" rx="15"></rect>
			<rect x="240" y="0" width="80" height="660" rx="15"></rect>
			<rect x="320" y="0" width="80" height="660" rx="15"></rect>
			<rect x="400" y="0" width="80" height="660" rx="15"></rect>
			<rect x="480" y="0" width="80" height="660" rx="15"></rect>
			<rect x="560" y="0" width="80" height="660" rx="15"></rect>
			<rect x="640" y="0" width="80" height="660" rx="15"></rect>
			<rect x="720" y="0" width="80" height="660" rx="15"></rect>
			<rect x="800" y="0" width="80" height="660" rx="15"></rect>
			<rect x="880" y="0" width="80" height="660" rx="15"></rect>
			<rect x="960" y="0" width="80" height="660" rx="15"></rect>
			<rect x="1040" y="0" width="80" height="660" rx="15"></rect>
			<rect x="1120" y="0" width="80" height="660" rx="15"></rect>
			<rect x="1200" y="0" width="80" height="660" rx="15"></rect>
			<rect x="1280" y="0" width="80" height="660" rx="15"></rect>
			<rect x="1360" y="0" width="80" height="660" rx="15"></rect>
			<rect x="1440" y="0" width="80" height="660" rx="15"></rect>
			<rect x="1520" y="0" width="80" height="660" rx="15"></rect>
			<rect x="1600" y="0" width="80" height="660" rx="15"></rect>
			<rect x="1680" y="0" width="80" height="660" rx="15"></rect>
			<rect x="1760" y="0" width="80" height="660" rx="15"></rect>
			<rect x="1840" y="0" width="80" height="660" rx="15"></rect>
			<rect x="1920" y="0" width="80" height="660" rx="15"></rect>
			<rect x="2000" y="0" width="80" height="660" rx="15"></rect>
			<rect x="2080" y="0" width="80" height="660" rx="15"></rect>
		</g>

		<!-- Music Sheet -->
		<g transform="translate(10, 320)">
			<text x="40" y="6" font-size="124">𝄞</text>

			<!-- Vertical lines (end markers) -->
			<line x1="0" x2="0" y1="-40" y2="40" stroke="#000" stroke-width="0.5" stroke-linecap="square" />
			<line x1="2260" x2="2260" y1="-40" y2="40" stroke="#000" stroke-width="0.5" />
			<rect x="2265" y="-40" width="5" height="80" fill="#000"></rect>

			<!-- Horizontal lines -->
			<line x1="0" x2="2270" y1="-40" y2="-40" stroke="#000" stroke-width="0.5" />
			<line x1="0" x2="2270" y1="-20" y2="-20" stroke="#000" stroke-width="0.5" />
			<line x1="0" x2="2270" y1="0" y2="0" stroke="#000" stroke-width="0.5" />
			<line x1="0" x2="2270" y1="20" y2="20" stroke="#000" stroke-width="0.5" />
			<line x1="0" x2="2270" y1="40" y2="40" stroke="#000" stroke-width="0.5" />
		</g>

		<!-- Notes -->
		<g transform="translate(140, 330)" font-size="80" dominant-baseline="auto">
			<line x1="-18" x2="17" y1="50" y2="50" stroke="#000" stroke-width="0.5" />
			<line x1="-18" x2="17" y1="70" y2="70" stroke="#000" stroke-width="0.5" />

			<line x1="51" x2="109" y1="50" y2="50" stroke="#000" stroke-width="0.5" />
			<line x1="51" x2="109" y1="70" y2="70" stroke="#000" stroke-width="0.5" />

			<line x1="142" x2="177" y1="50" y2="50" stroke="#000" stroke-width="0.5" />
			<line x1="142" x2="177" y1="70" y2="70" stroke="#000" stroke-width="0.5" />

			<line x1="211" x2="269" y1="50" y2="50" stroke="#000" stroke-width="0.5" />
			<line x1="211" x2="246" y1="70" y2="70" stroke="#000" stroke-width="0.5" />

			<line x1="302" x2="337" y1="50" y2="50" stroke="#000" stroke-width="0.5" />

			<line x1="382" x2="417" y1="50" y2="50" stroke="#000" stroke-width="0.5" />

			<line x1="451" x2="486" y1="50" y2="50" stroke="#000" stroke-width="0.5" />

			<line x1="1994" x2="2029" y1="-70" y2="-70" stroke="#000" stroke-width="0.5" />
			<line x1="2062" x2="2097" y1="-70" y2="-70" stroke="#000" stroke-width="0.5" />

			<g transform="translate(0, -2)">
				<text x="0" y="90">𝅘</text>
				<use href="#half-tone" x="80" y="90" />
				<text x="160" y="80">𝅘</text>
				<use href="#half-tone" x="240" y="80" />
				<text x="320" y="70">𝅘</text>
				<text x="400" y="60">𝅘</text>
				<use href="#half-tone" x="480" y="60" />
				<text x="560" y="50">𝅘</text>
				<use href="#half-tone" x="640" y="50" />
				<text x="720" y="40">𝅘</text>
				<text x="800" y="30">𝅘</text>
				<use href="#half-tone" x="880" y="30" />
				<text x="960" y="20">𝅘</text>
				<use href="#half-tone" x="1040" y="20" />
				<text x="1120" y="10">𝅘</text>
				<use href="#half-tone" x="1200" y="10" />
				<text x="1280" y="0">𝅘</text>
				<text x="1360" y="-10">𝅘</text>
				<use href="#half-tone" x="1440" y="-10" />
				<text x="1520" y="-20">𝅘</text>
				<use href="#half-tone" x="1600" y="-20" />
				<text x="1680" y="-30">𝅘</text>
				<text x="1760" y="-40">𝅘</text>
				<use href="#half-tone" x="1840" y="-40" />
				<text x="1920" y="-50">𝅘</text>
				<use href="#half-tone" x="2000" y="-50" />
				<text x="2080" y="-60">𝅘</text>
			</g>
		</g>

		<!-- Tone -->
		<g transform="translate(140, 482)" font-size="30" fill="#000">
			<g transform="translate(0, 0)"><text>G³</text></g>
			<g transform="translate(80, 0)" font-size="20"><text x="-14" y="-5">G♯³</text><text x="14" y="5">A♭³</text></g>
			<g transform="translate(160, 0)"><text>A³</text></g>
			<g transform="translate(240, 0)" font-size="18"><text x="-14" y="-5">A♯³</text><text x="14" y="5">B♭³</text></g>
			<g transform="translate(320, 0)"><text>B³</text></g>
			<g transform="translate(400, 0)"><text>C⁴</text></g>
			<g transform="translate(480, 0)" font-size="20"><text x="-14" y="-5">C♯⁴</text><text x="14" y="5">D♭⁴</text></g>
			<g transform="translate(560, 0)"><text>D⁴</text></g>
			<g transform="translate(640, 0)" font-size="18"><text x="-14" y="-5">D♯⁴</text><text x="14" y="5">E♭⁴</text></g>
			<g transform="translate(720, 0)"><text>E⁴</text></g>
			<g transform="translate(800, 0)"><text>F⁴</text></g>
			<g transform="translate(880, 0)" font-size="18"><text x="-14" y="-5">F♯⁴</text><text x="14" y="5">G♭⁴</text></g>
			<g transform="translate(960, 0)"><text>G⁴</text></g>
			<g transform="translate(1040, 0)" font-size="18"><text x="-14" y="-5">G♯⁴</text><text x="14" y="5">A♭⁴</text></g>
			<g transform="translate(1120, 0)"><text>A⁴</text></g>
			<g transform="translate(1200, 0)" font-size="18"><text x="-14" y="-5">A♯⁴</text><text x="14" y="5">B♭⁴</text></g>
			<g transform="translate(1280, 0)"><text>B⁴</text></g>
			<g transform="translate(1360, 0)"><text>C⁵</text></g>
			<g transform="translate(1440, 0)" font-size="18"><text x="-14" y="-5">C♯⁵</text><text x="14" y="5">D♭⁵</text></g>
			<g transform="translate(1520, 0)"><text>D⁵</text></g>
			<g transform="translate(1600, 0)" font-size="18"><text x="-14" y="-5">D♯⁵</text><text x="14" y="5">E♭⁵</text></g>
			<g transform="translate(1680, 0)"><text>E⁵</text></g>
			<g transform="translate(1760, 0)"><text>F⁵</text></g>
			<g transform="translate(1840, 0)" font-size="18"><text x="-14" y="-5">F♯⁵</text><text x="14" y="5">G♭⁵</text></g>
			<g transform="translate(1920, 0)"><text>G⁵</text></g>
			<g transform="translate(2000, 0)" font-size="18"><text x="-14" y="-5">G♯⁵</text><text x="14" y="5">A♭⁵</text></g>
			<g transform="translate(2080, 0)"><text>A⁵</text></g>
		</g>

		<!-- Strings -->
		<g transform="translate(10, 570)" fill="#666">
			<!-- Nuts -->
			<g transform="translate(86, -30)">
				<rect x="1200" y="0" width="8" height="60"></rect>
				<rect x="800" y="80" width="8" height="60"></rect>
				<rect x="480" y="160" width="8" height="60"></rect>
				<rect x="80" y="240" width="8" height="60"></rect>
			</g>

			<g transform="translate(10, 0)" font-size="20" text-anchor="start" fill="#000">
				<g transform="translate(0, 0)"><text>1 / A⁴</text></g>
				<g transform="translate(0, 80)"><text>2 / E⁴</text></g>
				<g transform="translate(0, 160)"><text>3 / C⁴</text></g>
				<g transform="translate(0, 240)"><text>4 / G³</text></g>
			</g>

			<line x1="80" x2="2260" y1="0" y2="0" stroke="#666" stroke-width="2" />
			<line x1="80" x2="2260" y1="80" y2="80" stroke="#666" stroke-width="4" />
			<line x1="80" x2="2260" y1="160" y2="160" stroke="#666" stroke-width="6" />
			<line x1="80" x2="2260" y1="240" y2="240" stroke="#666" stroke-width="8" />
		</g>

		<!-- Frets -->
		<g transform="translate(140, 570)" font-size="22" fill="#fff">
			<!-- String 1 -->
			<g transform="translate(0, 0)">
				<g fill="#666">
					<circle cx="1120" r="24" />
					<circle cx="1200" r="24" fill="#aaa" />
					<circle cx="1280" r="24" />
					<circle cx="1360" r="24" />
					<circle cx="1440" r="24" fill="#aaa" />
					<circle cx="1520" r="24" />
					<circle cx="1600" r="24" fill="#aaa" />
					<circle cx="1680" r="24" />
					<circle cx="1760" r="24" />
					<circle cx="1840" r="24" fill="#aaa" />
					<circle cx="1920" r="24" />
					<circle cx="2000" r="24" fill="#aaa" />
					<circle cx="2080" r="24" />
				</g>

				<g transform="translate(0, 16)" fill="#fff">
					<circle cx="1520" r="2" />
					<circle cx="1680" r="2" />
					<circle cx="1920" r="2" />
					<circle cx="2076" r="2" />
					<circle cx="2084" r="2" />
				</g>

				<g transform="translate(0, 2)">
					<text x="1120">O</text>
					<text x="1200">1</text>
					<text x="1280">2</text>
					<text x="1360">3</text>
					<text x="1440">4</text>
					<text x="1520">5</text>
					<text x="1600">6</text>
					<text x="1680">7</text>
					<text x="1760">8</text>
					<text x="1840">9</text>
					<text x="1920">10</text>
					<text x="2000">11</text>
					<text x="2080">12</text>
				</g>
			</g>

			<!-- String 2 -->
			<g transform="translate(0, 80)">
				<g fill="#666">
					<circle cx="720" r="24" />
					<circle cx="800" r="24" />
					<circle cx="880" r="24" fill="#aaa" />
					<circle cx="960" r="24" />
					<circle cx="1040" r="24" fill="#aaa" />
					<circle cx="1120" r="24" />
					<circle cx="1200" r="24" fill="#aaa" />
					<circle cx="1280" r="24" />
					<circle cx="1360" r="24" />
					<circle cx="1440" r="24" fill="#aaa" />
					<circle cx="1520" r="24" />
					<circle cx="1600" r="24" fill="#aaa" />
					<circle cx="1680" r="24" />
				</g>

				<g transform="translate(0, 16)" fill="#fff">
					<circle cx="1120" r="2" />
					<circle cx="1280" r="2" />
					<circle cx="1520" r="2" />
					<circle cx="1676" r="2" />
					<circle cx="1684" r="2" />
				</g>

				<g transform="translate(0, 2)" font-size="22" fill="#fff">
					<text x="720">O</text>
					<text x="800">1</text>
					<text x="880">2</text>
					<text x="960">3</text>
					<text x="1040">4</text>
					<text x="1120">5</text>
					<text x="1200">6</text>
					<text x="1280">7</text>
					<text x="1360">8</text>
					<text x="1440">9</text>
					<text x="1520">10</text>
					<text x="1600">11</text>
					<text x="1680">12</text>
				</g>
			</g>

			<!-- String 3 -->
			<g transform="translate(0, 160)">
				<g fill="#666">
					<circle cx="400" r="24" />
					<circle cx="480" r="24" fill="#aaa" />
					<circle cx="560" r="24" />
					<circle cx="640" r="24" fill="#aaa" />
					<circle cx="720" r="24" />
					<circle cx="800" r="24" />
					<circle cx="880" r="24" fill="#aaa" />
					<circle cx="960" r="24" />
					<circle cx="1040" r="24" fill="#aaa" />
					<circle cx="1120" r="24" />
					<circle cx="1200" r="24" fill="#aaa" />
					<circle cx="1280" r="24" />
					<circle cx="1360" r="24" />
				</g>

				<g transform="translate(0, 16)" fill="#fff">
					<circle cx="800" r="2" />
					<circle cx="960" r="2" />
					<circle cx="1200" r="2" />
					<circle cx="1356" r="2" />
					<circle cx="1364" r="2" />
				</g>

				<g transform="translate(0, 2)" font-size="22" fill="#fff">
					<text x="400">O</text>
					<text x="480">1</text>
					<text x="560">2</text>
					<text x="640">3</text>
					<text x="720">4</text>
					<text x="800">5</text>
					<text x="880">6</text>
					<text x="960">7</text>
					<text x="1040">8</text>
					<text x="1120">9</text>
					<text x="1200">10</text>
					<text x="1280">11</text>
					<text x="1360">12</text>
				</g>
			</g>

			<!-- String 4 -->
			<g transform="translate(0, 240)">
				<g fill="#666">
					<circle cx="0" r="24" />
					<circle cx="80" r="24" fill="#aaa" />
					<circle cx="160" r="24" />
					<circle cx="240" r="24" fill="#aaa" />
					<circle cx="320" r="24" />
					<circle cx="400" r="24" />
					<circle cx="480" r="24" fill="#aaa" />
					<circle cx="560" r="24" />
					<circle cx="640" r="24" fill="#aaa" />
					<circle cx="720" r="24" />
					<circle cx="800" r="24" />
					<circle cx="880" r="24" fill="#aaa" />
					<circle cx="960" r="24" />
				</g>

				<g transform="translate(0, 16)" fill="#fff">
					<circle cx="400" r="2" />
					<circle cx="560" r="2" />
					<circle cx="800" r="2" />
					<circle cx="956" r="2" />
					<circle cx="964" r="2" />
				</g>

				<g transform="translate(0, 2)" font-size="22" fill="#fff">
					<text x="0">O</text>
					<text x="80">1</text>
					<text x="160">2</text>
					<text x="240">3</text>
					<text x="320">4</text>
					<text x="400">5</text>
					<text x="480">6</text>
					<text x="560">7</text>
					<text x="640">8</text>
					<text x="720">9</text>
					<text x="800">10</text>
					<text x="880">11</text>
					<text x="960">12</text>
				</g>
			</g>
		</g>

		<!-- Explanation -->
		<g transform="translate(0, 810)" text-anchor="start">
			<line x1="95" x2="95" y1="4" y2="150" stroke="#aaa" stroke-width="0.5" stroke-linecap="square" />
			<line x1="140" x2="140" y1="24" y2="130" stroke="#aaa" stroke-width="0.5" stroke-linecap="square" />
			<line x1="180" x2="180" y1="30" y2="110" stroke="#aaa" stroke-width="0.5" stroke-linecap="square" />
			<line x1="220" x2="220" y1="24" y2="90" stroke="#aaa" stroke-width="0.5" stroke-linecap="square" />

			<line x1="95" x2="260" y1="150" y2="150" stroke="#aaa" stroke-width="0.5" stroke-linecap="square" />
			<line x1="140" x2="260" y1="130" y2="130" stroke="#aaa" stroke-width="0.5" stroke-linecap="square" />
			<line x1="180" x2="260" y1="110" y2="110" stroke="#aaa" stroke-width="0.5" stroke-linecap="square" />
			<line x1="220" x2="260" y1="90" y2="90" stroke="#aaa" stroke-width="0.5" stroke-linecap="square" />

			<text x="270" y="90" font-size="16" fill="#aaa">Fret (1 to 12)</text>
			<text x="270" y="110" font-size="16" fill="#aaa">Nut</text>
			<text x="270" y="130" font-size="16" fill="#aaa">Open String (O)</text>
			<text x="270" y="150" font-size="16" fill="#aaa">String</text>
		</g>
	</g>
</svg>
